<svg xmlns="http://www.w3.org/2000/svg" viewBox="0 0 64 64">
  <!-- Фон - світлий для кращої видимості -->
  <circle cx="32" cy="32" r="30" fill="#ffffff"/>
  
  <!-- Гештальт-символ: стилізований мозок/психіка з гармонією -->
  <!-- Зовнішній контур - символ цілісності -->
  <path d="M 32 10 Q 18 10 12 22 Q 10 28 12 34 Q 18 46 32 46 Q 46 46 52 34 Q 54 28 52 22 Q 46 10 32 10 Z" 
        fill="none" 
        stroke="#ff8c42" 
        stroke-width="2.5" 
        stroke-linecap="round" 
        stroke-linejoin="round"/>
  
  <!-- Внутрішні зв'язки - символ емоцій та зв'язків -->
  <path d="M 20 24 Q 28 20 36 24" 
        fill="none" 
        stroke="#ff8c42" 
        stroke-width="1.8" 
        stroke-opacity="0.8"/>
  <path d="M 20 32 Q 32 28 44 32" 
        fill="none" 
        stroke="#ff8c42" 
        stroke-width="1.8" 
        stroke-opacity="0.8"/>
  <path d="M 20 40 Q 28 36 36 40" 
        fill="none" 
        stroke="#ff8c42" 
        stroke-width="1.8" 
        stroke-opacity="0.8"/>
  
  <!-- Центральна точка - символ самосвідомості та центру -->
  <circle cx="32" cy="32" r="3.5" fill="#ff8c42" opacity="0.95"/>
  
  <!-- Додаткові точки - символ балансу -->
  <circle cx="24" cy="28" r="1.5" fill="#ff8c42" opacity="0.7"/>
  <circle cx="40" cy="28" r="1.5" fill="#ff8c42" opacity="0.7"/>
  <circle cx="24" cy="36" r="1.5" fill="#ff8c42" opacity="0.7"/>
  <circle cx="40" cy="36" r="1.5" fill="#ff8c42" opacity="0.7"/>
</svg>
